# xmcd
#
# Track frame offsets: 
#        150
#        12017
#        24145
#        34910
#        49575
#        66385
#        77880
#        91170
#        104520
#        119327
#        130142
#        142400
#        154807
#        166305
#        182355
#        193020
#        203640
#        215767
#        228492
#        240845
#        254295
#        266775
#        279175
#        290480
#        300445
#
# Disc length: 4151 seconds
#
# Revision: 0
# Processed by: cddbd v1.5.2PL0 Copyright (c) Steve Scherf et al.
# Submitted via: ExactAudioCopy v1.1
#
DISCID=5c103519
DTITLE=トミー藤山 - トミー藤山_カントリー・ヒット
DYEAR=1994
DGENRE=Country Japan
TTITLE0=Tennessee Yodel Polka
TTITLE1=Teen Angel
TTITLE2=Button And Bows
TTITLE3=The Yellow Rose Of Texas
TTITLE4=You Are My Sunshine
TTITLE5=Tennessee Waltz
TTITLE6=Molly Darlin'
TTITLE7=San Antonio Rose
TTITLE8=Indian Love Call
TTITLE9=Cattle Call
TTITLE10=I'm Cast My Lasso Towards The Sky
TTITLE11=The Alpine Milkman
TTITLE12=Columbus Stockade Blues
TTITLE13=By The Waters Of Minnetonka
TTITLE14=My Darlin' Clementine
TTITLE15=Chime Bells
TTITLE16=Kentucky Waltz
TTITLE17=I Can't Stop Loving You
TTITLE18=Jimmy Brown The Newsboy
TTITLE19=I Went To Your Windows
TTITLE20=Back In The Saddle Again
TTITLE21=Your Cheatin' Heart
TTITLE22=Hey Good Lookin'
TTITLE23=Y'all Come
TTITLE24=Jambalaya
EXTD=
EXTT0=
EXTT1=
EXTT2=
EXTT3=
EXTT4=
EXTT5=
EXTT6=
EXTT7=
EXTT8=
EXTT9=
EXTT10=
EXTT11=
EXTT12=
EXTT13=
EXTT14=
EXTT15=
EXTT16=
EXTT17=
EXTT18=
EXTT19=
EXTT20=
EXTT21=
EXTT22=
EXTT23=
EXTT24=
PLAYORDER=
